<mxfile host="app.diagrams.net" agent="Mozilla/5.0 (Windows NT 10.0; Win64; x64) AppleWebKit/537.36 (KHTML, like Gecko) Chrome/123.0.0.0 Safari/537.36 OPR/109.0.0.0" version="24.7.6">
  <diagram name="Page-1" id="IR4bl_E1EhjFEOECJbUF">
    <mxGraphModel dx="1393" dy="789" grid="1" gridSize="10" guides="1" tooltips="1" connect="1" arrows="1" fold="1" page="1" pageScale="1" pageWidth="1100" pageHeight="850" math="0" shadow="0">
      <root>
        <mxCell id="0" />
        <mxCell id="1" parent="0" />
        <mxCell id="0Mz9v0yFrZPrHXfqjJKG-3" value="Item System - Builder Tool" style="text;html=1;align=center;verticalAlign=middle;resizable=0;points=[];autosize=1;strokeColor=none;fillColor=none;fontSize=20;" parent="1" vertex="1">
          <mxGeometry x="420" y="38" width="260" height="40" as="geometry" />
        </mxCell>
        <mxCell id="0Mz9v0yFrZPrHXfqjJKG-4" value="Window" style="swimlane;whiteSpace=wrap;html=1;" parent="1" vertex="1">
          <mxGeometry y="78" width="1100" height="652" as="geometry" />
        </mxCell>
        <mxCell id="0Mz9v0yFrZPrHXfqjJKG-1" value="Unique Item Builder" style="swimlane;whiteSpace=wrap;html=1;" parent="0Mz9v0yFrZPrHXfqjJKG-4" vertex="1">
          <mxGeometry y="112" width="560" height="538" as="geometry" />
        </mxCell>
        <mxCell id="0Mz9v0yFrZPrHXfqjJKG-67" value="" style="edgeStyle=orthogonalEdgeStyle;rounded=0;orthogonalLoop=1;jettySize=auto;html=1;strokeColor=#ff0000;align=left;verticalAlign=top;fontFamily=Helvetica;fontSize=11;fontColor=default;labelBackgroundColor=default;endArrow=open;endSize=8;" parent="0Mz9v0yFrZPrHXfqjJKG-1" source="0Mz9v0yFrZPrHXfqjJKG-21" target="0Mz9v0yFrZPrHXfqjJKG-64" edge="1">
          <mxGeometry relative="1" as="geometry" />
        </mxCell>
        <mxCell id="0Mz9v0yFrZPrHXfqjJKG-68" style="edgeStyle=orthogonalEdgeStyle;rounded=0;orthogonalLoop=1;jettySize=auto;html=1;entryX=0.5;entryY=0;entryDx=0;entryDy=0;strokeColor=#ff0000;align=left;verticalAlign=top;fontFamily=Helvetica;fontSize=11;fontColor=default;labelBackgroundColor=default;endArrow=open;endSize=8;" parent="0Mz9v0yFrZPrHXfqjJKG-1" source="0Mz9v0yFrZPrHXfqjJKG-21" target="0Mz9v0yFrZPrHXfqjJKG-62" edge="1">
          <mxGeometry relative="1" as="geometry" />
        </mxCell>
        <mxCell id="0Mz9v0yFrZPrHXfqjJKG-21" value="Start" style="ellipse;html=1;shape=startState;fillColor=#000000;strokeColor=#ff0000;spacingTop=-40;" parent="0Mz9v0yFrZPrHXfqjJKG-1" vertex="1">
          <mxGeometry x="265" y="40" width="30" height="30" as="geometry" />
        </mxCell>
        <mxCell id="0Mz9v0yFrZPrHXfqjJKG-54" style="edgeStyle=orthogonalEdgeStyle;rounded=0;orthogonalLoop=1;jettySize=auto;html=1;entryX=0;entryY=0.5;entryDx=0;entryDy=0;strokeColor=#ff0000;align=left;verticalAlign=top;fontFamily=Helvetica;fontSize=11;fontColor=default;labelBackgroundColor=default;endArrow=open;endSize=8;" parent="0Mz9v0yFrZPrHXfqjJKG-1" edge="1">
          <mxGeometry relative="1" as="geometry">
            <mxPoint x="250" y="430" as="targetPoint" />
          </mxGeometry>
        </mxCell>
        <mxCell id="0Mz9v0yFrZPrHXfqjJKG-58" value="" style="edgeStyle=orthogonalEdgeStyle;rounded=0;orthogonalLoop=1;jettySize=auto;html=1;strokeColor=#ff0000;align=left;verticalAlign=top;fontFamily=Helvetica;fontSize=11;fontColor=default;labelBackgroundColor=default;endArrow=open;endSize=8;" parent="0Mz9v0yFrZPrHXfqjJKG-1" edge="1">
          <mxGeometry relative="1" as="geometry">
            <mxPoint x="420" y="430" as="targetPoint" />
          </mxGeometry>
        </mxCell>
        <mxCell id="0Mz9v0yFrZPrHXfqjJKG-59" value="" style="edgeStyle=orthogonalEdgeStyle;rounded=0;orthogonalLoop=1;jettySize=auto;html=1;strokeColor=#ff0000;align=left;verticalAlign=top;fontFamily=Helvetica;fontSize=11;fontColor=default;labelBackgroundColor=default;endArrow=open;endSize=8;" parent="0Mz9v0yFrZPrHXfqjJKG-1" edge="1">
          <mxGeometry relative="1" as="geometry">
            <mxPoint x="305.02857142857147" y="490" as="targetPoint" />
          </mxGeometry>
        </mxCell>
        <mxCell id="0Mz9v0yFrZPrHXfqjJKG-82" value="" style="edgeStyle=orthogonalEdgeStyle;rounded=0;orthogonalLoop=1;jettySize=auto;html=1;strokeColor=#ff0000;align=left;verticalAlign=top;fontFamily=Helvetica;fontSize=11;fontColor=default;labelBackgroundColor=default;endArrow=open;endSize=8;" parent="0Mz9v0yFrZPrHXfqjJKG-1" source="0Mz9v0yFrZPrHXfqjJKG-62" target="0Mz9v0yFrZPrHXfqjJKG-76" edge="1">
          <mxGeometry relative="1" as="geometry" />
        </mxCell>
        <mxCell id="0Mz9v0yFrZPrHXfqjJKG-62" value="User changed item value" style="rounded=1;whiteSpace=wrap;html=1;arcSize=40;fontColor=#000000;fillColor=#ffffc0;strokeColor=#ff0000;" parent="0Mz9v0yFrZPrHXfqjJKG-1" vertex="1">
          <mxGeometry x="67.5" y="90" width="120" height="40" as="geometry" />
        </mxCell>
        <mxCell id="0Mz9v0yFrZPrHXfqjJKG-87" value="" style="edgeStyle=orthogonalEdgeStyle;rounded=0;orthogonalLoop=1;jettySize=auto;html=1;strokeColor=#ff0000;align=left;verticalAlign=top;fontFamily=Helvetica;fontSize=11;fontColor=default;labelBackgroundColor=default;endArrow=open;endSize=8;" parent="0Mz9v0yFrZPrHXfqjJKG-1" source="0Mz9v0yFrZPrHXfqjJKG-64" target="0Mz9v0yFrZPrHXfqjJKG-83" edge="1">
          <mxGeometry relative="1" as="geometry" />
        </mxCell>
        <mxCell id="0Mz9v0yFrZPrHXfqjJKG-64" value="User clicked generate" style="rounded=1;whiteSpace=wrap;html=1;arcSize=40;fontColor=#000000;fillColor=#ffffc0;strokeColor=#ff0000;" parent="0Mz9v0yFrZPrHXfqjJKG-1" vertex="1">
          <mxGeometry x="352.5" y="90" width="120" height="40" as="geometry" />
        </mxCell>
        <mxCell id="0Mz9v0yFrZPrHXfqjJKG-80" style="edgeStyle=orthogonalEdgeStyle;rounded=0;orthogonalLoop=1;jettySize=auto;html=1;entryX=0.5;entryY=0;entryDx=0;entryDy=0;strokeColor=#ff0000;align=left;verticalAlign=top;fontFamily=Helvetica;fontSize=11;fontColor=default;labelBackgroundColor=default;endArrow=open;endSize=8;" parent="0Mz9v0yFrZPrHXfqjJKG-1" source="0Mz9v0yFrZPrHXfqjJKG-76" target="0Mz9v0yFrZPrHXfqjJKG-77" edge="1">
          <mxGeometry relative="1" as="geometry">
            <Array as="points">
              <mxPoint x="60" y="210" />
            </Array>
          </mxGeometry>
        </mxCell>
        <mxCell id="0Mz9v0yFrZPrHXfqjJKG-141" value="No" style="edgeLabel;html=1;align=center;verticalAlign=middle;resizable=0;points=[];" parent="0Mz9v0yFrZPrHXfqjJKG-80" vertex="1" connectable="0">
          <mxGeometry y="1" relative="1" as="geometry">
            <mxPoint as="offset" />
          </mxGeometry>
        </mxCell>
        <mxCell id="0Mz9v0yFrZPrHXfqjJKG-81" style="edgeStyle=orthogonalEdgeStyle;rounded=0;orthogonalLoop=1;jettySize=auto;html=1;entryX=0.5;entryY=0;entryDx=0;entryDy=0;strokeColor=#ff0000;align=left;verticalAlign=top;fontFamily=Helvetica;fontSize=11;fontColor=default;labelBackgroundColor=default;endArrow=open;endSize=8;" parent="0Mz9v0yFrZPrHXfqjJKG-1" source="0Mz9v0yFrZPrHXfqjJKG-76" target="0Mz9v0yFrZPrHXfqjJKG-79" edge="1">
          <mxGeometry relative="1" as="geometry">
            <Array as="points">
              <mxPoint x="200" y="210" />
            </Array>
          </mxGeometry>
        </mxCell>
        <mxCell id="0Mz9v0yFrZPrHXfqjJKG-142" value="Yes" style="edgeLabel;html=1;align=center;verticalAlign=middle;resizable=0;points=[];" parent="0Mz9v0yFrZPrHXfqjJKG-81" vertex="1" connectable="0">
          <mxGeometry relative="1" as="geometry">
            <mxPoint as="offset" />
          </mxGeometry>
        </mxCell>
        <mxCell id="0Mz9v0yFrZPrHXfqjJKG-76" value="changed item type?" style="rhombus;whiteSpace=wrap;html=1;fontColor=#000000;fillColor=#ffffc0;strokeColor=#ff0000;" parent="0Mz9v0yFrZPrHXfqjJKG-1" vertex="1">
          <mxGeometry x="75" y="170" width="105" height="80" as="geometry" />
        </mxCell>
        <mxCell id="0Mz9v0yFrZPrHXfqjJKG-77" value="Update instance value" style="rounded=1;whiteSpace=wrap;html=1;arcSize=40;fontColor=#000000;fillColor=#ffffc0;strokeColor=#ff0000;" parent="0Mz9v0yFrZPrHXfqjJKG-1" vertex="1">
          <mxGeometry y="300" width="120" height="40" as="geometry" />
        </mxCell>
        <mxCell id="0Mz9v0yFrZPrHXfqjJKG-79" value="Update type specific display" style="rounded=1;whiteSpace=wrap;html=1;arcSize=40;fontColor=#000000;fillColor=#ffffc0;strokeColor=#ff0000;" parent="0Mz9v0yFrZPrHXfqjJKG-1" vertex="1">
          <mxGeometry x="140" y="300" width="120" height="40" as="geometry" />
        </mxCell>
        <mxCell id="0Mz9v0yFrZPrHXfqjJKG-86" value="" style="edgeStyle=orthogonalEdgeStyle;rounded=0;orthogonalLoop=1;jettySize=auto;html=1;strokeColor=#ff0000;align=left;verticalAlign=top;fontFamily=Helvetica;fontSize=11;fontColor=default;labelBackgroundColor=default;endArrow=open;endSize=8;" parent="0Mz9v0yFrZPrHXfqjJKG-1" source="0Mz9v0yFrZPrHXfqjJKG-83" target="0Mz9v0yFrZPrHXfqjJKG-85" edge="1">
          <mxGeometry relative="1" as="geometry" />
        </mxCell>
        <mxCell id="0Mz9v0yFrZPrHXfqjJKG-83" value="Check if every mandatory field is filled and valid" style="rounded=1;whiteSpace=wrap;html=1;arcSize=40;fontColor=#000000;fillColor=#ffffc0;strokeColor=#ff0000;" parent="0Mz9v0yFrZPrHXfqjJKG-1" vertex="1">
          <mxGeometry x="352.5" y="185" width="120" height="40" as="geometry" />
        </mxCell>
        <mxCell id="0Mz9v0yFrZPrHXfqjJKG-139" style="edgeStyle=orthogonalEdgeStyle;rounded=0;orthogonalLoop=1;jettySize=auto;html=1;entryX=0.5;entryY=0;entryDx=0;entryDy=0;strokeColor=#ff0000;align=left;verticalAlign=top;fontFamily=Helvetica;fontSize=11;fontColor=default;labelBackgroundColor=default;endArrow=open;endSize=8;" parent="0Mz9v0yFrZPrHXfqjJKG-1" source="0Mz9v0yFrZPrHXfqjJKG-85" target="0Mz9v0yFrZPrHXfqjJKG-88" edge="1">
          <mxGeometry relative="1" as="geometry">
            <Array as="points">
              <mxPoint x="330" y="310" />
            </Array>
          </mxGeometry>
        </mxCell>
        <mxCell id="0Mz9v0yFrZPrHXfqjJKG-144" value="No" style="edgeLabel;html=1;align=center;verticalAlign=middle;resizable=0;points=[];" parent="0Mz9v0yFrZPrHXfqjJKG-139" vertex="1" connectable="0">
          <mxGeometry relative="1" as="geometry">
            <mxPoint as="offset" />
          </mxGeometry>
        </mxCell>
        <mxCell id="0Mz9v0yFrZPrHXfqjJKG-140" style="edgeStyle=orthogonalEdgeStyle;rounded=0;orthogonalLoop=1;jettySize=auto;html=1;entryX=0.5;entryY=0;entryDx=0;entryDy=0;strokeColor=#ff0000;align=left;verticalAlign=top;fontFamily=Helvetica;fontSize=11;fontColor=default;labelBackgroundColor=default;endArrow=open;endSize=8;" parent="0Mz9v0yFrZPrHXfqjJKG-1" source="0Mz9v0yFrZPrHXfqjJKG-85" target="0Mz9v0yFrZPrHXfqjJKG-90" edge="1">
          <mxGeometry relative="1" as="geometry">
            <Array as="points">
              <mxPoint x="490" y="310" />
            </Array>
          </mxGeometry>
        </mxCell>
        <mxCell id="0Mz9v0yFrZPrHXfqjJKG-145" value="Yes" style="edgeLabel;html=1;align=center;verticalAlign=middle;resizable=0;points=[];" parent="0Mz9v0yFrZPrHXfqjJKG-140" vertex="1" connectable="0">
          <mxGeometry y="2" relative="1" as="geometry">
            <mxPoint as="offset" />
          </mxGeometry>
        </mxCell>
        <mxCell id="0Mz9v0yFrZPrHXfqjJKG-85" value="check return true?" style="rhombus;whiteSpace=wrap;html=1;fontColor=#000000;fillColor=#ffffc0;strokeColor=#ff0000;" parent="0Mz9v0yFrZPrHXfqjJKG-1" vertex="1">
          <mxGeometry x="360" y="270" width="105" height="80" as="geometry" />
        </mxCell>
        <mxCell id="0Mz9v0yFrZPrHXfqjJKG-88" value="Print Error" style="rounded=1;whiteSpace=wrap;html=1;arcSize=40;fontColor=#000000;fillColor=#ffffc0;strokeColor=#ff0000;" parent="0Mz9v0yFrZPrHXfqjJKG-1" vertex="1">
          <mxGeometry x="270" y="370" width="120" height="40" as="geometry" />
        </mxCell>
        <mxCell id="0Mz9v0yFrZPrHXfqjJKG-90" value="Generate Item Prefab" style="rounded=1;whiteSpace=wrap;html=1;arcSize=40;fontColor=#000000;fillColor=#ffffc0;strokeColor=#ff0000;" parent="0Mz9v0yFrZPrHXfqjJKG-1" vertex="1">
          <mxGeometry x="430" y="370" width="120" height="40" as="geometry" />
        </mxCell>
        <mxCell id="0Mz9v0yFrZPrHXfqjJKG-2" value="Droptable Builder" style="swimlane;whiteSpace=wrap;html=1;" parent="0Mz9v0yFrZPrHXfqjJKG-4" vertex="1">
          <mxGeometry x="560" y="112" width="540" height="538" as="geometry" />
        </mxCell>
        <mxCell id="0Mz9v0yFrZPrHXfqjJKG-99" style="edgeStyle=orthogonalEdgeStyle;rounded=0;orthogonalLoop=1;jettySize=auto;html=1;entryX=0.5;entryY=0;entryDx=0;entryDy=0;strokeColor=#ff0000;align=left;verticalAlign=top;fontFamily=Helvetica;fontSize=11;fontColor=default;labelBackgroundColor=default;endArrow=open;endSize=8;" parent="0Mz9v0yFrZPrHXfqjJKG-2" source="0Mz9v0yFrZPrHXfqjJKG-30" target="0Mz9v0yFrZPrHXfqjJKG-95" edge="1">
          <mxGeometry relative="1" as="geometry" />
        </mxCell>
        <mxCell id="0Mz9v0yFrZPrHXfqjJKG-100" value="" style="edgeStyle=orthogonalEdgeStyle;rounded=0;orthogonalLoop=1;jettySize=auto;html=1;strokeColor=#ff0000;align=left;verticalAlign=top;fontFamily=Helvetica;fontSize=11;fontColor=default;labelBackgroundColor=default;endArrow=open;endSize=8;" parent="0Mz9v0yFrZPrHXfqjJKG-2" source="0Mz9v0yFrZPrHXfqjJKG-30" target="0Mz9v0yFrZPrHXfqjJKG-96" edge="1">
          <mxGeometry relative="1" as="geometry" />
        </mxCell>
        <mxCell id="0Mz9v0yFrZPrHXfqjJKG-101" style="edgeStyle=orthogonalEdgeStyle;rounded=0;orthogonalLoop=1;jettySize=auto;html=1;entryX=0.5;entryY=0;entryDx=0;entryDy=0;strokeColor=#ff0000;align=left;verticalAlign=top;fontFamily=Helvetica;fontSize=11;fontColor=default;labelBackgroundColor=default;endArrow=open;endSize=8;" parent="0Mz9v0yFrZPrHXfqjJKG-2" source="0Mz9v0yFrZPrHXfqjJKG-30" target="0Mz9v0yFrZPrHXfqjJKG-97" edge="1">
          <mxGeometry relative="1" as="geometry" />
        </mxCell>
        <mxCell id="0Mz9v0yFrZPrHXfqjJKG-30" value="Start" style="ellipse;html=1;shape=startState;fillColor=#000000;strokeColor=#ff0000;spacingTop=-40;" parent="0Mz9v0yFrZPrHXfqjJKG-2" vertex="1">
          <mxGeometry x="255" y="40" width="30" height="30" as="geometry" />
        </mxCell>
        <mxCell id="0Mz9v0yFrZPrHXfqjJKG-136" value="" style="edgeStyle=orthogonalEdgeStyle;rounded=0;orthogonalLoop=1;jettySize=auto;html=1;strokeColor=#ff0000;align=left;verticalAlign=top;fontFamily=Helvetica;fontSize=11;fontColor=default;labelBackgroundColor=default;endArrow=open;endSize=8;" parent="0Mz9v0yFrZPrHXfqjJKG-2" source="0Mz9v0yFrZPrHXfqjJKG-95" target="0Mz9v0yFrZPrHXfqjJKG-126" edge="1">
          <mxGeometry relative="1" as="geometry" />
        </mxCell>
        <mxCell id="0Mz9v0yFrZPrHXfqjJKG-95" value="User changed entry value" style="rounded=1;whiteSpace=wrap;html=1;arcSize=40;fontColor=#000000;fillColor=#ffffc0;strokeColor=#ff0000;" parent="0Mz9v0yFrZPrHXfqjJKG-2" vertex="1">
          <mxGeometry x="60" y="90" width="120" height="40" as="geometry" />
        </mxCell>
        <mxCell id="0Mz9v0yFrZPrHXfqjJKG-108" value="" style="edgeStyle=orthogonalEdgeStyle;rounded=0;orthogonalLoop=1;jettySize=auto;html=1;strokeColor=#ff0000;align=left;verticalAlign=top;fontFamily=Helvetica;fontSize=11;fontColor=default;labelBackgroundColor=default;endArrow=open;endSize=8;" parent="0Mz9v0yFrZPrHXfqjJKG-2" source="0Mz9v0yFrZPrHXfqjJKG-96" target="0Mz9v0yFrZPrHXfqjJKG-107" edge="1">
          <mxGeometry relative="1" as="geometry" />
        </mxCell>
        <mxCell id="0Mz9v0yFrZPrHXfqjJKG-96" value="User changes list" style="rounded=1;whiteSpace=wrap;html=1;arcSize=40;fontColor=#000000;fillColor=#ffffc0;strokeColor=#ff0000;" parent="0Mz9v0yFrZPrHXfqjJKG-2" vertex="1">
          <mxGeometry x="210" y="90" width="120" height="40" as="geometry" />
        </mxCell>
        <mxCell id="0Mz9v0yFrZPrHXfqjJKG-134" value="" style="edgeStyle=orthogonalEdgeStyle;rounded=0;orthogonalLoop=1;jettySize=auto;html=1;strokeColor=#ff0000;align=left;verticalAlign=top;fontFamily=Helvetica;fontSize=11;fontColor=default;labelBackgroundColor=default;endArrow=open;endSize=8;" parent="0Mz9v0yFrZPrHXfqjJKG-2" source="0Mz9v0yFrZPrHXfqjJKG-97" target="0Mz9v0yFrZPrHXfqjJKG-132" edge="1">
          <mxGeometry relative="1" as="geometry" />
        </mxCell>
        <mxCell id="0Mz9v0yFrZPrHXfqjJKG-97" value="User clicked create" style="rounded=1;whiteSpace=wrap;html=1;arcSize=40;fontColor=#000000;fillColor=#ffffc0;strokeColor=#ff0000;" parent="0Mz9v0yFrZPrHXfqjJKG-2" vertex="1">
          <mxGeometry x="400" y="90" width="120" height="40" as="geometry" />
        </mxCell>
        <mxCell id="0Mz9v0yFrZPrHXfqjJKG-127" style="edgeStyle=orthogonalEdgeStyle;rounded=0;orthogonalLoop=1;jettySize=auto;html=1;entryX=0.5;entryY=0;entryDx=0;entryDy=0;strokeColor=#ff0000;align=left;verticalAlign=top;fontFamily=Helvetica;fontSize=11;fontColor=default;labelBackgroundColor=default;endArrow=open;endSize=8;" parent="0Mz9v0yFrZPrHXfqjJKG-2" source="0Mz9v0yFrZPrHXfqjJKG-107" target="0Mz9v0yFrZPrHXfqjJKG-110" edge="1">
          <mxGeometry relative="1" as="geometry">
            <Array as="points">
              <mxPoint x="195" y="200" />
            </Array>
          </mxGeometry>
        </mxCell>
        <mxCell id="0Mz9v0yFrZPrHXfqjJKG-146" value="Yes" style="edgeLabel;html=1;align=center;verticalAlign=middle;resizable=0;points=[];" parent="0Mz9v0yFrZPrHXfqjJKG-127" vertex="1" connectable="0">
          <mxGeometry y="1" relative="1" as="geometry">
            <mxPoint as="offset" />
          </mxGeometry>
        </mxCell>
        <mxCell id="0Mz9v0yFrZPrHXfqjJKG-138" style="edgeStyle=orthogonalEdgeStyle;rounded=0;orthogonalLoop=1;jettySize=auto;html=1;entryX=0.5;entryY=0;entryDx=0;entryDy=0;strokeColor=#ff0000;align=left;verticalAlign=top;fontFamily=Helvetica;fontSize=11;fontColor=default;labelBackgroundColor=default;endArrow=open;endSize=8;" parent="0Mz9v0yFrZPrHXfqjJKG-2" source="0Mz9v0yFrZPrHXfqjJKG-107" target="0Mz9v0yFrZPrHXfqjJKG-111" edge="1">
          <mxGeometry relative="1" as="geometry">
            <Array as="points">
              <mxPoint x="345" y="200" />
            </Array>
          </mxGeometry>
        </mxCell>
        <mxCell id="0Mz9v0yFrZPrHXfqjJKG-148" value="No" style="edgeLabel;html=1;align=center;verticalAlign=middle;resizable=0;points=[];" parent="0Mz9v0yFrZPrHXfqjJKG-138" vertex="1" connectable="0">
          <mxGeometry relative="1" as="geometry">
            <mxPoint as="offset" />
          </mxGeometry>
        </mxCell>
        <mxCell id="0Mz9v0yFrZPrHXfqjJKG-107" value="Added entry?" style="rhombus;whiteSpace=wrap;html=1;fontColor=#000000;fillColor=#ffffc0;strokeColor=#ff0000;" parent="0Mz9v0yFrZPrHXfqjJKG-2" vertex="1">
          <mxGeometry x="217.5" y="160" width="105" height="80" as="geometry" />
        </mxCell>
        <mxCell id="0Mz9v0yFrZPrHXfqjJKG-110" value="Add entry value to instance" style="rounded=1;whiteSpace=wrap;html=1;arcSize=40;fontColor=#000000;fillColor=#ffffc0;strokeColor=#ff0000;" parent="0Mz9v0yFrZPrHXfqjJKG-2" vertex="1">
          <mxGeometry x="135" y="270" width="120" height="40" as="geometry" />
        </mxCell>
        <mxCell id="0Mz9v0yFrZPrHXfqjJKG-111" value="Delete entry from instance" style="rounded=1;whiteSpace=wrap;html=1;arcSize=40;fontColor=#000000;fillColor=#ffffc0;strokeColor=#ff0000;" parent="0Mz9v0yFrZPrHXfqjJKG-2" vertex="1">
          <mxGeometry x="285" y="270" width="120" height="40" as="geometry" />
        </mxCell>
        <mxCell id="0Mz9v0yFrZPrHXfqjJKG-126" value="Update entry value" style="rounded=1;whiteSpace=wrap;html=1;arcSize=40;fontColor=#000000;fillColor=#ffffc0;strokeColor=#ff0000;" parent="0Mz9v0yFrZPrHXfqjJKG-2" vertex="1">
          <mxGeometry x="60" y="170" width="120" height="40" as="geometry" />
        </mxCell>
        <mxCell id="0Mz9v0yFrZPrHXfqjJKG-132" value="Create droptable scriptable object" style="rounded=1;whiteSpace=wrap;html=1;arcSize=40;fontColor=#000000;fillColor=#ffffc0;strokeColor=#ff0000;" parent="0Mz9v0yFrZPrHXfqjJKG-2" vertex="1">
          <mxGeometry x="400" y="180" width="120" height="40" as="geometry" />
        </mxCell>
        <mxCell id="0Mz9v0yFrZPrHXfqjJKG-16" value="" style="edgeStyle=orthogonalEdgeStyle;rounded=0;orthogonalLoop=1;jettySize=auto;html=1;strokeColor=#ff0000;align=left;verticalAlign=top;fontFamily=Helvetica;fontSize=11;fontColor=default;labelBackgroundColor=default;endArrow=open;endSize=8;" parent="0Mz9v0yFrZPrHXfqjJKG-4" source="0Mz9v0yFrZPrHXfqjJKG-6" target="0Mz9v0yFrZPrHXfqjJKG-11" edge="1">
          <mxGeometry relative="1" as="geometry" />
        </mxCell>
        <mxCell id="0Mz9v0yFrZPrHXfqjJKG-6" value="Start" style="ellipse;html=1;shape=startState;fillColor=#000000;strokeColor=#ff0000;spacingTop=-40;" parent="0Mz9v0yFrZPrHXfqjJKG-4" vertex="1">
          <mxGeometry x="365" y="52" width="30" height="30" as="geometry" />
        </mxCell>
        <mxCell id="0Mz9v0yFrZPrHXfqjJKG-15" value="" style="edgeStyle=orthogonalEdgeStyle;rounded=0;orthogonalLoop=1;jettySize=auto;html=1;strokeColor=#ff0000;align=left;verticalAlign=top;fontFamily=Helvetica;fontSize=11;fontColor=default;labelBackgroundColor=default;endArrow=open;endSize=8;" parent="0Mz9v0yFrZPrHXfqjJKG-4" source="0Mz9v0yFrZPrHXfqjJKG-11" target="0Mz9v0yFrZPrHXfqjJKG-13" edge="1">
          <mxGeometry relative="1" as="geometry" />
        </mxCell>
        <mxCell id="0Mz9v0yFrZPrHXfqjJKG-11" value="User changed path" style="rounded=1;whiteSpace=wrap;html=1;arcSize=40;fontColor=#000000;fillColor=#ffffc0;strokeColor=#ff0000;" parent="0Mz9v0yFrZPrHXfqjJKG-4" vertex="1">
          <mxGeometry x="435" y="47" width="120" height="40" as="geometry" />
        </mxCell>
        <mxCell id="0Mz9v0yFrZPrHXfqjJKG-13" value="Update internal save path" style="rounded=1;whiteSpace=wrap;html=1;arcSize=40;fontColor=#000000;fillColor=#ffffc0;strokeColor=#ff0000;" parent="0Mz9v0yFrZPrHXfqjJKG-4" vertex="1">
          <mxGeometry x="615" y="47" width="120" height="40" as="geometry" />
        </mxCell>
      </root>
    </mxGraphModel>
  </diagram>
</mxfile>
